<svg width="256px" height="256px" viewBox="0 0 20.20 20.20" xmlns="http://www.w3.org/2000/svg" fill="#000000"><g id="SVGRepo_bgCarrier" stroke-width="0"></g><g id="SVGRepo_tracerCarrier" stroke-linecap="round" stroke-linejoin="round"></g><g id="SVGRepo_iconCarrier"> <g id="medical-receipt-left-3" transform="translate(-1.8 -2)"> <rect id="secondary" fill="#cfeff3" width="5" height="10.66" rx="2.5" transform="translate(1.964 14.503) rotate(-45)"></rect> <path id="primary" d="M11,8h6m-4,4h4m-5.73,4.73a2.52,2.52,0,0,1,0,3.54h0a2.52,2.52,0,0,1-3.54,0l-4-4a2.52,2.52,0,0,1,0-3.54h0a2.52,2.52,0,0,1,3.54,0ZM5.84,18.16l3.32-3.32" fill="none" stroke="#f2f2f2" stroke-linecap="round" stroke-linejoin="round" stroke-width="0.8686"></path> <path id="primary-2" data-name="primary" d="M7,8V4A1,1,0,0,1,8,3H20a1,1,0,0,1,1,1V20a1,1,0,0,1-1,1H16" fill="none" stroke="#f2f2f2" stroke-linecap="round" stroke-linejoin="round" stroke-width="0.8686"></path> </g> </g></svg>
