<svg width="200" height="200" xmlns="http://www.w3.org/2000/svg">
  <!-- Brain part -->
  <path d="M50,60 C50,50 40,50 40,60 S40,70 50,70 S60,70 60,60 S60,50 50,50" 
        stroke="#2A6EBB" stroke-width="2" fill="none"/>
  <path d="M50,70 C50,80 40,80 40,70 S40,60 50,60 S60,60 60,70 S60,80 50,80" 
        stroke="#2A6EBB" stroke-width="2" fill="none"/>
  <path d="M50,80 C50,90 40,90 40,80 S40,70 50,70 S60,70 60,80 S60,90 50,90" 
        stroke="#2A6EBB" stroke-width="2" fill="none"/>
  <!-- Divider line -->
  <line x1="60" y1="50" x2="80" y2="50" stroke="black" stroke-width="1"/>
  <line x1="60" y1="90" x2="80" y2="90" stroke="black" stroke-width="1"/>
  <!-- Stethoscope part -->
  <circle cx="120" cy="70" r="10" stroke="#1A4780" stroke-width="2" fill="none"/>
  <path d="M120,80 L120,90" stroke="#1A4780" stroke-width="2" fill="none"/>
  <path d="M120,90 C120,100 130,100 130,90" stroke="#1A4780" stroke-width="2" fill="none"/>
  <path d="M130,90 L140,80" stroke="#1A4780" stroke-width="2" fill="none"/>
  <path d="M140,80 C140,70 130,70 130,80" stroke="#1A4780" stroke-width="2" fill="none"/>
</svg>
